<?xml version="1.0"?><svg width="640" height="480" xmlns="http://www.w3.org/2000/svg">
 <title>Pen with blue line</title>
 <g>
  <title>Layer 1</title>
  <path d="m45.66658,408.662689c4.531059,3.231995 17.092628,-3.709167 49.835388,-92.884064c33.132477,-99.222961 24.842285,-98.112808 25.194855,-101.21788" id="path1910" stroke-width="7.580786" stroke="#000000" fill-rule="evenodd" fill-opacity="0.75" fill="none"/>
  <path d="m33.32703,406.476959c-5.563351,-0.15976 -12.914289,-8.726105 11.534908,-105.52298c20.728333,-67.241211 34.064888,-95.704727 42.635323,-100.653595" id="path1911" stroke-width="7.580786" stroke="#000000" fill-rule="evenodd" fill-opacity="0.75" fill="none"/>
  <path d="m85.091743,209.438736c-10.657387,-2.685471 -5.882172,-19.804459 4.511909,-19.24263" id="path1914" stroke-width="7.580786" stroke="#000000" fill-rule="evenodd" fill-opacity="0.75" fill="none"/>
  <path d="m86.689926,204.440094c-22.412766,35.083878 -56.477736,144.181671 -54.969757,197.094299c-0.602758,2.292725 16.176399,7.20517 17.087551,5.511292c30.437687,-42.974426 65.799129,-150.20993 70.849171,-192.179718c-16.275131,-10.678574 -32.966949,-10.425873 -32.966949,-10.425873l-0.000015,0z" id="path1905" stroke-width="0.60646286pt" stroke="#000000" fill-rule="evenodd" fill="#8c9fbd"/>
  <path d="m119.717628,219.731506c7.002953,1.086639 14.703621,-8.126312 6.032333,-18.63826" id="path1912" stroke-width="7.580786" stroke="#000000" fill-rule="evenodd" fill-opacity="0.75" fill="none"/>
  <path d="m84.635948,191.883713c0.418945,-30.713058 20.418495,-81.325943 23.129684,-89.394814c2.711197,-8.068871 34.270668,-83.325689 54.961723,-77.06411c20.691071,6.26157 15.761337,49.195114 -4.05455,109.540314c-19.815903,60.345184 -31.179054,70.414459 -31.179054,70.414459" id="path1915" stroke-width="7.580786" stroke="#000000" fill-rule="evenodd" fill-opacity="0.75" fill="none"/>
  <path d="m162.327164,29.297211c-26.672226,-7.74938 -73.214211,116.229141 -74.078453,162.464142c-1.622627,6.414063 8.773003,5.694138 19.431389,8.443176c10.951012,2.847336 16.689293,9.458405 18.171661,3.571594c26.954544,-44.869415 64.654953,-165.412521 36.475403,-174.478912z" id="path1903" stroke-width="0.60646286pt" stroke="#000000" fill-rule="evenodd" fill="#8c9fbd"/>
  <path d="m83.335632,199.104614c-3.017349,10.060257 8.253975,6.706818 19.528366,9.879852c11.274368,3.173035 20.138634,10.725708 22.553383,3.539124c2.414742,-7.186584 -8.997124,-15.837326 -18.174294,-17.69046c-9.17717,-1.853149 -21.447357,-4.13031 -23.907455,4.271484z" id="path1904" stroke-width="3.790393" stroke="#000000" fill-rule="evenodd" fill="#fae472"/>
  <path d="m40.680538,387.219757c14.006432,-84.171173 34.010975,-136.854645 41.926044,-156.299377c7.233925,-20.324844 -10.548355,53.860779 -14.185936,64.686676l-27.740108,91.612701z" id="path1906" stroke-width="1.0000000pt" fill-rule="evenodd" fill-opacity="0.541667" fill="#ffffff"/>
  <path d="m97.828339,188.778763c10.299644,-61.664482 30.715881,-108.858437 36.591202,-116.653061c5.875305,-7.79464 -2.996323,28.299561 -2.996323,28.299561l-33.594879,88.3535z" id="path1907" stroke-width="1.0000000pt" fill-rule="evenodd" fill-opacity="0.541667" fill="#ffffff"/>
  <path stroke="#aad4ff" d="m323.938568,284.735779c-2.592285,-0.2146 -5.23642,-0.122375 -7.833923,-0.151062c-20.089294,-0.357178 -40.131348,-0.337921 -60.22348,0.143982c-39.198959,1.104309 -79.193802,2.006042 -117.787872,9.569092c-1.323669,0.304504 -9.48494,1.297821 -10.201012,3.146484c-0.411491,1.062317 2.422234,-1.050995 2.641212,-2.168976c0.243134,-1.241272 -2.533447,-3.646118 -1.270569,-3.575531c12.583191,0.703461 26.128708,4.756409 38.692139,6.48703c60.369751,8.020203 121.765549,11.681915 181.680038,22.653931c70.270569,16.202637 -32.568939,30.646973 -46.416626,31.868439c-44.377869,3.350555 -91.06459,1.063904 -134.841125,9.698242c-0.701828,0.216553 0.063446,-5.650055 5.859528,-2.801483c11.429062,5.616974 23.275208,10.42038 34.919067,15.568115c9.356659,4.19751 46.28363,15.710541 41.876129,30.768494c-9.652664,12.141998 -34.542542,10.789642 -48.47377,11.519043c-17.673737,0.763336 -35.359161,0.816467 -53.045837,0.907135c-7.468597,0.068146 -14.966583,0.079193 -22.396736,0.928192c-6.032639,0.735474 -12.022522,1.319366 -18.091988,1.670868c-6.463585,0.369659 -12.922974,0.899536 -19.363319,1.560852c-5.636635,0.663635 -11.240402,1.503448 -16.906227,1.898285c-4.492706,0.268524 -8.976395,0.654144 -13.474785,0.824554c-4.093342,0.130371 -8.185432,0.097107 -12.279751,0.038971c-3.432022,-0.050079 -6.8606,-0.157349 -10.279869,0.220612l-2.582611,-10.562622c4.410191,-0.415375 8.797729,-0.395386 13.22123,-0.336029c3.654781,0.047638 7.30846,0.082214 10.962559,-0.024384c4.236,-0.147095 8.459633,-0.497955 12.691559,-0.722107c5.390625,-0.341064 10.721039,-1.182343 16.086372,-1.769745c6.783043,-0.654999 13.57946,-1.193542 20.381203,-1.60968c5.64978,-0.347351 11.219971,-0.976685 16.839485,-1.630066c8.397957,-0.876831 16.850426,-0.778229 25.282555,-0.706329c17.207703,0.205597 34.409103,0.375214 51.60466,-0.453247c9.143082,-0.549835 18.433899,-1.112366 27.415344,-3.023499c0.664566,-0.141388 6.488098,-2.076569 6.606369,-1.51535c1.639832,3.072723 -4.800369,-5.158234 -7.754562,-7.003113c-8.412979,-5.253845 -17.542419,-9.336761 -26.548737,-13.441925c-4.941132,-2.189789 -71.688461,-24.187531 -36.103378,-30.023376c45.251999,-4.996155 91.151062,-3.783783 136.536255,-7.789368c8.301392,-0.874146 81.64325,-4.819794 44.088104,-15.768311c-58.600098,-13.41153 -120.188797,-16.716858 -179.866333,-22.926147c-11.232269,-1.154877 -89.410393,-10.698212 -31.426712,-21.081757c39.937973,-6.172058 80.689209,-7.413391 121.007614,-9.172577c20.312988,-0.862854 40.616333,-1.594788 60.943878,-1.956207c2.597504,-0.028656 5.241638,0.063538 7.833923,-0.151031l0,10.891602z" id="path1918" stroke-width="1.0000000pt" fill-rule="nonzero" fill="#aad4ff"/>
  <path d="m47.81469,416.013123c1.143101,-0.488495 5.46133,-2.333862 8.151001,-3.483276c2.377369,-1.015961 4.754738,-2.031921 7.132118,-3.047852c2.577087,-1.101318 5.321594,-1.833893 7.723473,-2.860321c2.205971,-0.942719 6.108856,-1.730072 8.314819,-2.672791c2.237267,-0.956085 7.0438,-1.249084 9.497536,-2.297668c1.44577,-0.617828 8.323463,-2.265503 10.598312,-2.32782c1.624161,-0.694061 6.442749,-2.010254 8.988083,-2.079987c2.645088,-1.130341 7.475449,-1.433533 10.006966,-2.515381c2.791794,-1.193054 9.04438,-1.223511 11.699089,-2.357971c0.576721,0.182892 9.597824,-1.459991 10.680237,-1.922577c4.196411,-0.11496 6.623993,-2.015198 11.189651,-2.140289c1.694412,-0.724091 8.06076,-1.8508 10.680252,-1.922577c2.44342,-1.044159 8.590012,-1.029327 11.189651,-2.140259c1.186737,-0.507172 7.844116,-2.063538 8.478653,-1.862274c2.608566,-1.114746 6.065903,-0.831207 8.478653,-1.862274c2.336945,-0.998657 4.465149,-1.027618 7.295944,-2.237335c0.729065,-0.311584 7.261002,-1.869202 7.969208,-1.644592c2.11322,-0.903046 6.118469,-1.734161 7.805389,-2.455048c2.501816,-1.069122 5.114792,-1.745514 7.723465,-2.860321c2.31282,-0.063354 7.182297,-1.748535 8.396744,-2.267517c2.364471,-0.064758 7.090683,-1.269135 8.478653,-1.862274c2.591629,-0.070984 7.847015,-1.592346 9.497528,-2.297668c2.349686,-0.064362 7.334961,-1.813782 8.906174,-2.485229c3.994995,-0.109436 5.878418,-2.198517 10.598297,-2.32782c2.750763,-1.175507 7.385468,-1.395081 10.006989,-2.515381c2.494659,-1.066071 7.931915,-0.748108 10.680206,-1.922577c4.748322,-0.130096 8.366394,-1.044189 13.045624,-1.172363c1.797668,-0.76825 8.777039,-0.669006 10.252716,-1.299622c2.209351,-0.060547 7.926453,-1.626312 8.988098,-2.079987c3.671234,-0.100586 7.021118,-0.803589 11.435394,-0.9245c0.604095,-0.258179 10.476807,-0.470001 11.599213,-0.114044c2.121521,-0.058105 9.308502,1.305206 9.643402,1.162079c3.847595,1.220276 -0.33902,2.547394 1.756104,3.211853c-2.585632,1.10498 -3.081329,2.197327 -5.439972,3.205292c-1.243042,0.531189 -2.454742,1.929504 -4.930542,2.987518c-1.374664,0.587463 -3.860199,2.089905 -6.031342,3.017731c-2.517578,1.075867 -5.443329,1.885895 -7.72348,2.860321c-1.714294,0.732574 -6.104553,0.847687 -8.478638,1.862244c-2.34436,0.06424 -7.931,1.628235 -9.497528,2.297699c-1.759399,0.048187 -7.718994,1.537628 -8.988098,2.079956c-2.369995,1.012817 -7.127502,1.284851 -9.497528,2.297668c-1.924469,0.822418 -8.181244,2.057861 -11.189667,2.140289c-2.546906,1.088409 -7.29248,0.9151 -9.579437,1.892426c-2.317749,0.063477 -9.199493,1.289795 -10.680206,1.922577c-1.858337,0.794128 -7.057266,1.254852 -9.497528,2.297668c-3.6772,0.56601 -8.402527,2.063934 -12.290451,2.170441c-2.393936,1.02301 -8.223984,0.872894 -10.680237,1.922577c-2.663269,0.072968 -5.958832,2.106201 -7.723465,2.860321c-1.863556,0.796387 -6.156799,-0.010498 -8.642487,1.051727c-2.46077,1.051636 -6.209549,1.332855 -8.906158,2.48526c-2.453522,1.048492 -5.967743,1.669739 -8.314835,2.67276c-2.444397,1.044586 -6.991058,1.226532 -9.497528,2.297668c-2.070221,0.056702 -8.097855,1.699524 -8.988068,2.079956c-2.474182,1.057343 -7.516281,1.010742 -10.088898,2.110138c-3.462234,0.094849 -6.219238,1.596619 -10.170792,1.704865c-2.643967,1.129883 -8.54097,1.448639 -10.088867,2.110138c-1.126923,0.481567 -9.252258,1.996185 -10.170792,1.704865c-2.638901,1.127716 -7.574249,1.035522 -10.08889,2.110138c-1.177879,-0.373596 -8.049736,1.646759 -10.170776,1.704865c-2.344292,1.001801 -7.058685,1.255432 -9.49752,2.297668c-1.932503,0.825836 -7.65255,1.87439 -10.59832,2.32782c-1.554375,-0.49295 -7.679749,1.736359 -9.151909,1.26947c-2.249001,0.96109 -6.413315,0.979645 -8.478653,1.862274c-4.311218,0.118103 -5.749931,0.972504 -10.844048,1.112061c-0.81105,0.346588 -8.413464,0.365845 -9.989021,-0.13385c-1.939781,0.828949 -7.376892,-1.201782 -9.215862,-1.785004c-4.368519,-1.385498 -5.97551,-1.408722 -1.7561,-3.211884z" id="path1919" stroke-width="1.0000000pt" fill-rule="evenodd" fill-opacity="0.066667" fill="#000000"/>
  <path d="m32.666328,404.961945c-3.885759,22.70929 2.032742,25.781891 14.192001,4.337067c-5.478271,-0.444519 -12.118519,-3.136627 -14.192001,-4.337067z" id="path1909" stroke-width="4.62428" stroke="#000000" fill-rule="evenodd" fill="#929292"/>
  <path d="m547.855164,395.73349c16.178345,23.105438 13.193848,44.865112 13.070068,46.102814" id="path866" stroke-linecap="round" stroke-width="2.431792" stroke="#ffffff" fill-rule="evenodd" fill-opacity="0.75" fill="none"/>
 </g>
</svg>